<svg class="emptyspace-logo" width="824" height="96" viewBox="0 0 824 96" fill="none" xmlns="http://www.w3.org/2000/svg">
<path d="M24.2639 73.248C10.1519 73.248 0.263916 62.976 0.263916 48.288C0.263916 33.408 9.95992 23.136 23.8799 23.136C38.0879 23.136 47.1119 32.64 47.1119 47.424V50.976L11.3999 51.072C12.2639 59.424 16.6799 63.648 24.4559 63.648C30.8879 63.648 35.1119 61.152 36.4559 56.64H47.3039C45.2879 67.008 36.6479 73.248 24.2639 73.248ZM23.9759 32.736C17.0639 32.736 12.8399 36.48 11.6879 43.584H35.4959C35.4959 37.056 30.9839 32.736 23.9759 32.736Z" fill="black"/>
<path d="M68.1974 72H56.4854V24.576H67.2374L68.1974 30.144C70.5974 26.208 75.3974 23.136 82.2134 23.136C89.4134 23.136 94.4054 26.688 96.9014 32.16C99.3014 26.688 104.869 23.136 112.069 23.136C123.589 23.136 129.925 30.048 129.925 40.992V72H118.309V44.064C118.309 37.248 114.661 33.696 109.093 33.696C103.429 33.696 99.1094 37.344 99.1094 45.12V72H87.3974V43.968C87.3974 37.344 83.8454 33.792 78.2774 33.792C72.7094 33.792 68.1974 37.44 68.1974 45.12V72Z" fill="black"/>
<path d="M141.423 93.984V24.576H152.271L153.039 31.776C155.919 26.304 162.159 23.136 169.359 23.136C182.703 23.136 191.535 32.832 191.535 47.712C191.535 62.496 183.471 73.248 169.359 73.248C162.255 73.248 156.111 70.464 153.135 65.664V93.984H141.423ZM153.231 48.288C153.231 56.832 158.511 62.688 166.575 62.688C174.831 62.688 179.727 56.736 179.727 48.288C179.727 39.84 174.831 33.792 166.575 33.792C158.511 33.792 153.231 39.744 153.231 48.288Z" fill="black"/>
<path d="M216.52 72H204.808V34.368H195.688V24.576H204.808V9.792H216.52V24.576H225.736V34.368H216.52V72Z" fill="black"/>
<path d="M228.889 93.984V84.192H235.897C240.505 84.192 243.385 83.136 245.401 77.568L246.745 74.016L227.641 24.576H240.025L252.217 59.136L265.081 24.576H277.177L253.945 82.56C250.393 91.392 245.401 95.04 237.625 95.04C234.361 95.04 231.481 94.656 228.889 93.984Z" fill="black"/>
<path d="M279.15 57.6H290.286C290.382 61.728 293.454 64.32 298.83 64.32C304.302 64.32 307.278 62.112 307.278 58.656C307.278 56.256 306.03 54.528 301.806 53.568L293.262 51.552C284.718 49.632 280.59 45.6 280.59 38.016C280.59 28.704 288.462 23.136 299.406 23.136C310.062 23.136 317.262 29.28 317.358 38.496H306.222C306.126 34.464 303.438 31.872 298.926 31.872C294.318 31.872 291.63 33.984 291.63 37.536C291.63 40.224 293.742 41.952 297.774 42.912L306.318 44.928C314.286 46.752 318.318 50.4 318.318 57.696C318.318 67.296 310.158 73.248 298.446 73.248C286.638 73.248 279.15 66.912 279.15 57.6Z" fill="black"/>
<path d="M327.235 93.984V24.576H338.083L338.851 31.776C341.731 26.304 347.971 23.136 355.171 23.136C368.515 23.136 377.347 32.832 377.347 47.712C377.347 62.496 369.283 73.248 355.171 73.248C348.067 73.248 341.923 70.464 338.947 65.664V93.984H327.235ZM339.043 48.288C339.043 56.832 344.323 62.688 352.387 62.688C360.643 62.688 365.539 56.736 365.539 48.288C365.539 39.84 360.643 33.792 352.387 33.792C344.323 33.792 339.043 39.744 339.043 48.288Z" fill="black"/>
<path d="M400.785 73.248C390.705 73.248 384.561 67.392 384.561 58.464C384.561 49.728 390.897 44.256 402.129 43.392L416.337 42.336V41.28C416.337 34.848 412.497 32.256 406.545 32.256C399.633 32.256 395.793 35.136 395.793 40.128H385.809C385.809 29.856 394.257 23.136 407.121 23.136C419.889 23.136 427.761 30.048 427.761 43.2V72H417.489L416.625 64.992C414.609 69.888 408.177 73.248 400.785 73.248ZM404.625 64.416C411.825 64.416 416.433 60.096 416.433 52.8V50.304L406.545 51.072C399.249 51.744 396.465 54.144 396.465 57.984C396.465 62.304 399.345 64.416 404.625 64.416Z" fill="black"/>
<path d="M436.483 48.192C436.483 33.504 446.179 23.136 460.195 23.136C473.155 23.136 481.987 30.336 483.235 41.76H471.523C470.179 36.384 466.243 33.6 460.675 33.6C453.187 33.6 448.195 39.264 448.195 48.192C448.195 57.12 452.803 62.688 460.291 62.688C466.147 62.688 470.275 59.808 471.523 54.624H483.331C481.891 65.664 472.675 73.248 460.291 73.248C445.891 73.248 436.483 63.264 436.483 48.192Z" fill="black"/>
<path d="M513.264 73.248C499.152 73.248 489.264 62.976 489.264 48.288C489.264 33.408 498.96 23.136 512.88 23.136C527.088 23.136 536.112 32.64 536.112 47.424V50.976L500.4 51.072C501.264 59.424 505.68 63.648 513.456 63.648C519.888 63.648 524.112 61.152 525.456 56.64H536.304C534.288 67.008 525.648 73.248 513.264 73.248ZM512.976 32.736C506.064 32.736 501.84 36.48 500.688 43.584H524.496C524.496 37.056 519.984 32.736 512.976 32.736Z" fill="black"/>
<path d="M550.451 73.152C546.227 73.152 542.675 69.696 542.675 65.568C542.675 61.344 546.227 57.888 550.451 57.888C554.675 57.888 558.227 61.344 558.227 65.568C558.227 69.696 554.675 73.152 550.451 73.152Z" fill="black"/>
<path d="M570.517 93.984V24.576H581.365L582.133 31.776C585.013 26.304 591.253 23.136 598.453 23.136C611.797 23.136 620.629 32.832 620.629 47.712C620.629 62.496 612.565 73.248 598.453 73.248C591.349 73.248 585.205 70.464 582.229 65.664V93.984H570.517ZM582.325 48.288C582.325 56.832 587.605 62.688 595.669 62.688C603.925 62.688 608.821 56.736 608.821 48.288C608.821 39.84 603.925 33.792 595.669 33.792C587.605 33.792 582.325 39.744 582.325 48.288Z" fill="black"/>
<path d="M641.666 72H629.954V0.575996H641.762V30.72C644.738 26.112 650.306 23.136 657.122 23.136C668.834 23.136 674.978 30.528 674.978 42.816V72H663.266V45.6C663.266 37.632 659.33 33.792 653.378 33.792C645.986 33.792 641.666 38.976 641.666 46.08V72Z" fill="black"/>
<path d="M683.701 48.192C683.701 33.408 694.357 23.232 709.045 23.232C723.733 23.232 734.389 33.408 734.389 48.192C734.389 62.976 723.733 73.152 709.045 73.152C694.357 73.152 683.701 62.976 683.701 48.192ZM695.413 48.192C695.413 56.832 700.981 62.688 709.045 62.688C717.109 62.688 722.677 56.832 722.677 48.192C722.677 39.552 717.109 33.696 709.045 33.696C700.981 33.696 695.413 39.552 695.413 48.192Z" fill="black"/>
<path d="M759.332 72H747.62V34.368H738.5V24.576H747.62V9.792H759.332V24.576H768.548V34.368H759.332V72Z" fill="black"/>
<path d="M772.576 48.192C772.576 33.408 783.232 23.232 797.92 23.232C812.608 23.232 823.264 33.408 823.264 48.192C823.264 62.976 812.608 73.152 797.92 73.152C783.232 73.152 772.576 62.976 772.576 48.192ZM784.288 48.192C784.288 56.832 789.856 62.688 797.92 62.688C805.984 62.688 811.552 56.832 811.552 48.192C811.552 39.552 805.984 33.696 797.92 33.696C789.856 33.696 784.288 39.552 784.288 48.192Z" fill="black"/>
</svg>
